<?xml version="1.0" encoding="UTF-8"?>
<!DOCTYPE svg PUBLIC "-//W3C//DTD SVG 1.1//EN" "http://www.w3.org/Graphics/SVG/1.1/DTD/svg11.dtd">
<svg xmlns="http://www.w3.org/2000/svg" version="1.1" width="512px" height="512px" style="shape-rendering:geometricPrecision; text-rendering:geometricPrecision; image-rendering:optimizeQuality; fill-rule:evenodd; clip-rule:evenodd" xmlns:xlink="http://www.w3.org/1999/xlink">
<g><path style="opacity:0.898" fill="#0d0a09" d="M 326.5,206.5 C 325.167,206.5 323.833,206.5 322.5,206.5C 322.5,209.167 322.5,211.833 322.5,214.5C 322.822,227.413 322.489,240.246 321.5,253C 324.883,254.243 328.216,255.243 331.5,256C 332.883,253.306 333.383,250.473 333,247.5C 327.386,245.533 324.886,241.533 325.5,235.5C 326.914,229.431 328.581,223.431 330.5,217.5C 336.652,215.413 341.818,216.746 346,221.5C 358.018,208.75 370.018,196.083 382,183.5C 384.127,176.244 385.961,168.91 387.5,161.5C 395.102,163.131 402.436,165.631 409.5,169C 411.473,169.495 413.473,169.662 415.5,169.5C 415.708,177.3 413.708,184.467 409.5,191C 407.782,191.346 406.115,191.846 404.5,192.5C 398.949,190.095 393.283,188.095 387.5,186.5C 392.574,202.723 397.241,219.056 401.5,235.5C 406.167,234.167 410.833,234.167 415.5,235.5C 416.072,244.377 415.072,253.044 412.5,261.5C 408.893,262.489 405.226,262.823 401.5,262.5C 400.941,268.369 399.941,274.036 398.5,279.5C 396.735,282.123 396.068,285.123 396.5,288.5C 393.937,303.439 391.937,318.439 390.5,333.5C 400.862,337.232 411.196,341.066 421.5,345C 429.145,347.819 436.145,351.652 442.5,356.5C 435.667,367.5 428.833,378.5 422,389.5C 418.869,400.56 415.536,411.56 412,422.5C 411.439,423.022 410.772,423.355 410,423.5C 332.135,389.43 251.635,381.597 168.5,400C 144.18,405.44 120.68,413.273 98,423.5C 97.0546,423.095 96.3879,422.428 96,421.5C 92.7977,411.56 89.7977,401.56 87,391.5C 79.9297,379.94 73.0964,368.273 66.5,356.5C 71.9365,352.273 77.9365,348.773 84.5,346C 95.5596,341.301 106.893,337.467 118.5,334.5C 116.323,310.258 112.656,286.258 107.5,262.5C 103.649,263.029 100.149,262.362 97,260.5C 94.8835,252.312 94.0501,243.979 94.5,235.5C 98.5177,234.329 102.518,234.329 106.5,235.5C 111.965,217.772 117.632,200.105 123.5,182.5C 122.574,178.87 121.907,175.203 121.5,171.5C 121.795,169.265 121.461,167.265 120.5,165.5C 120.137,163.089 121.137,161.589 123.5,161C 131.244,160.806 138.91,159.973 146.5,158.5C 147.167,158.833 147.833,159.167 148.5,159.5C 150.494,166.417 150.827,173.417 149.5,180.5C 142.615,182.236 135.615,183.403 128.5,184C 137.04,193.037 145.373,202.204 153.5,211.5C 154.419,214.089 156.086,216.089 158.5,217.5C 160.148,218.81 161.814,220.143 163.5,221.5C 168.383,216.39 173.883,215.39 180,218.5C 182.854,226.619 183.854,234.953 183,243.5C 180.304,244.585 178.137,246.251 176.5,248.5C 177.223,250.782 177.557,253.116 177.5,255.5C 178.962,256.471 180.295,256.138 181.5,254.5C 183.582,254.528 185.416,253.861 187,252.5C 187.767,237.475 187.601,222.475 186.5,207.5C 182.422,207.74 180.256,205.74 180,201.5C 179.333,195.167 179.333,188.833 180,182.5C 185.416,181.361 190.916,181.194 196.5,182C 197.991,184.621 198.658,187.455 198.5,190.5C 200.833,190.5 203.167,190.5 205.5,190.5C 205.5,187.5 205.5,184.5 205.5,181.5C 210.167,181.5 214.833,181.5 219.5,181.5C 218.859,177.577 218.859,173.743 219.5,170C 212.67,169.512 210.17,166.012 212,159.5C 221.935,141.905 232.269,124.572 243,107.5C 245.95,102.882 249.284,98.5482 253,94.5C 253.383,83.5593 253.55,72.7259 253.5,62C 251.604,60.1917 251.104,58.025 252,55.5C 257.833,53.3333 259.667,55.1667 257.5,61C 264.636,64.4551 271.636,64.1218 278.5,60C 283.5,59.3333 288.5,59.3333 293.5,60C 295.478,60.4807 296.811,61.6473 297.5,63.5C 297.442,73.1775 297.109,82.8442 296.5,92.5C 288.354,91.7775 280.354,92.9442 272.5,96C 268.167,96.3333 263.833,96.6667 259.5,97C 272.548,116.922 284.715,137.422 296,158.5C 297.25,161.077 297.584,163.743 297,166.5C 294.732,167.76 292.566,169.094 290.5,170.5C 291.198,173.771 291.198,177.104 290.5,180.5C 295.017,180.69 299.684,181.024 304.5,181.5C 302.841,187.826 305.174,190.826 311.5,190.5C 311.963,187.518 312.296,184.518 312.5,181.5C 318.425,181.192 324.259,181.525 330,182.5C 331.506,187.746 331.839,193.079 331,198.5C 330.14,201.633 328.64,204.3 326.5,206.5 Z"/></g>
<g><path style="opacity:1" fill="#b64e79" d="M 282.5,62.5 C 285.909,62.2493 289.242,62.5827 292.5,63.5C 293.894,71.4574 294.394,79.4574 294,87.5C 285.329,88.2727 276.829,90.106 268.5,93C 264.463,93.6067 260.463,93.44 256.5,92.5C 256.334,83.1607 256.5,73.8274 257,64.5C 259.483,66.4913 262.316,67.4913 265.5,67.5C 271.561,66.8091 277.228,65.1424 282.5,62.5 Z"/></g>
<g><path style="opacity:1" fill="#9f1d1d" d="M 286.5,166.5 C 287.335,161.474 286.169,156.808 283,152.5C 274.667,138.5 266.333,124.5 258,110.5C 256.054,107.58 253.887,104.913 251.5,102.5C 252.031,100.456 253.198,98.7893 255,97.5C 269.425,118.672 282.591,140.672 294.5,163.5C 292.142,165.287 289.475,166.287 286.5,166.5 Z"/></g>
<g><path style="opacity:1" fill="#b32121" d="M 251.5,102.5 C 253.887,104.913 256.054,107.58 258,110.5C 266.333,124.5 274.667,138.5 283,152.5C 286.169,156.808 287.335,161.474 286.5,166.5C 267.303,169.863 247.969,170.363 228.5,168C 223.791,167.531 219.291,166.365 215,164.5C 214.878,162.831 215.212,161.165 216,159.5C 227.358,140.1 239.191,121.1 251.5,102.5 Z"/></g>
<g><path style="opacity:1" fill="#b14c76" d="M 140.5,162.5 C 142.5,162.5 144.5,162.5 146.5,162.5C 147.503,167.517 147.503,172.517 146.5,177.5C 139.988,179.325 133.321,179.992 126.5,179.5C 125.19,174.257 124.524,168.923 124.5,163.5C 130.026,163.821 135.36,163.488 140.5,162.5 Z"/></g>
<g><path style="opacity:0.324" fill="#86508a" d="M 120.5,165.5 C 121.461,167.265 121.795,169.265 121.5,171.5C 120.694,170.003 120.028,168.336 119.5,166.5C 119.624,165.893 119.957,165.56 120.5,165.5 Z"/></g>
<g><path style="opacity:1" fill="#b24d76" d="M 390.5,165.5 C 395.925,167.377 401.259,169.544 406.5,172C 408.134,172.494 409.801,172.66 411.5,172.5C 411.192,176.595 410.359,180.595 409,184.5C 408.519,186.478 407.353,187.811 405.5,188.5C 399.148,186.494 392.815,184.494 386.5,182.5C 387.83,176.852 389.164,171.185 390.5,165.5 Z"/></g>
<g><path style="opacity:1" fill="#9c9c9c" d="M 226.5,244.5 C 224.837,225.689 223.837,206.689 223.5,187.5C 223.5,181.833 223.5,176.167 223.5,170.5C 244.824,174.482 266.157,174.482 287.5,170.5C 286.569,195.483 286.236,220.483 286.5,245.5C 279.597,243.751 272.597,243.251 265.5,244C 264.524,250.076 264.19,256.242 264.5,262.5C 258.167,262.5 251.833,262.5 245.5,262.5C 245.666,256.824 245.499,251.157 245,245.5C 244.5,245 244,244.5 243.5,244C 237.796,243.313 232.13,243.479 226.5,244.5 Z"/></g>
<g><path style="opacity:1" fill="#9a9a9a" d="M 304.5,203.5 C 300.03,202.514 295.363,202.181 290.5,202.5C 290.5,196.833 290.5,191.167 290.5,185.5C 293.833,185.5 297.167,185.5 300.5,185.5C 300.232,187.099 300.566,188.432 301.5,189.5C 301.5,190.833 301.5,192.167 301.5,193.5C 305.833,193.5 310.167,193.5 314.5,193.5C 314.704,190.482 315.037,187.482 315.5,184.5C 319.5,184.5 323.5,184.5 327.5,184.5C 327.966,190.659 327.299,196.659 325.5,202.5C 318.532,203.497 311.532,203.83 304.5,203.5 Z"/></g>
<g><path style="opacity:1" fill="#999999" d="M 182.5,184.5 C 186.5,184.5 190.5,184.5 194.5,184.5C 194.616,187.86 194.949,191.193 195.5,194.5C 199.833,194.5 204.167,194.5 208.5,194.5C 208.5,191.167 208.5,187.833 208.5,184.5C 212.5,184.5 216.5,184.5 220.5,184.5C 220.5,190.833 220.5,197.167 220.5,203.5C 208.477,204.036 196.477,204.036 184.5,203.5C 182.817,197.293 182.15,190.96 182.5,184.5 Z"/></g>
<g><path style="opacity:1" fill="#ac2020" d="M 125.5,187.5 C 134.122,194.959 141.955,203.293 149,212.5C 154.015,217.682 159.181,222.682 164.5,227.5C 165.641,229.421 165.808,231.421 165,233.5C 162.699,234.867 160.199,235.534 157.5,235.5C 156.474,225.236 151.474,222.902 142.5,228.5C 141.633,232.465 141.633,236.465 142.5,240.5C 139.933,240.855 137.433,241.521 135,242.5C 132.983,239.657 131.483,236.49 130.5,233C 126.364,232.329 122.364,232.829 118.5,234.5C 117.509,238.445 117.176,242.445 117.5,246.5C 114.833,246.5 112.167,246.5 109.5,246.5C 112.796,226.32 118.129,206.653 125.5,187.5 Z"/></g>
<g><path style="opacity:1" fill="#080403" d="M 257.5,219.5 C 257.953,218.542 258.619,217.708 259.5,217C 257.342,215.688 257.009,214.022 258.5,212C 257.695,210.887 257.028,209.721 256.5,208.5C 258.949,209.057 261.282,209.057 263.5,208.5C 262.298,201.561 258.298,199.228 251.5,201.5C 250.737,202.719 249.737,203.719 248.5,204.5C 249.833,205.5 249.833,206.5 248.5,207.5C 250.173,209.086 252.173,209.753 254.5,209.5C 254.993,211.257 255.327,213.091 255.5,215C 254.833,216.333 253.833,217.333 252.5,218C 253.056,218.383 253.389,218.883 253.5,219.5C 250.5,219.5 247.5,219.5 244.5,219.5C 244.123,212.743 244.623,206.076 246,199.5C 252.3,192.921 258.633,192.921 265,199.5C 266.377,206.076 266.877,212.743 266.5,219.5C 263.5,219.5 260.5,219.5 257.5,219.5 Z"/></g>
<g><path style="opacity:1" fill="#ac2020" d="M 381.5,187.5 C 382.496,187.414 383.329,187.748 384,188.5C 390.754,207.52 396.254,226.853 400.5,246.5C 397.833,246.5 395.167,246.5 392.5,246.5C 392.5,242.5 392.5,238.5 392.5,234.5C 388.159,233.664 383.826,233.164 379.5,233C 378.517,236.49 377.017,239.657 375,242.5C 372.804,241.91 370.638,241.243 368.5,240.5C 368.346,236.521 368.013,232.521 367.5,228.5C 358.204,222.457 353.204,224.79 352.5,235.5C 345.007,236.185 342.84,233.185 346,226.5C 358.409,213.929 370.242,200.929 381.5,187.5 Z"/></g>
<g><path style="opacity:1" fill="#565656" d="M 301.5,189.5 C 300.566,188.432 300.232,187.099 300.5,185.5C 297.167,185.5 293.833,185.5 290.5,185.5C 290.5,191.167 290.5,196.833 290.5,202.5C 295.363,202.181 300.03,202.514 304.5,203.5C 299.5,203.5 294.5,203.5 289.5,203.5C 289.5,197.167 289.5,190.833 289.5,184.5C 293.5,184.5 297.5,184.5 301.5,184.5C 301.5,186.167 301.5,187.833 301.5,189.5 Z"/></g>
<g><path style="opacity:1" fill="#9c0606" d="M 256.5,208.5 C 255.508,208.328 254.842,208.662 254.5,209.5C 252.173,209.753 250.173,209.086 248.5,207.5C 249.833,206.5 249.833,205.5 248.5,204.5C 249.737,203.719 250.737,202.719 251.5,201.5C 258.298,199.228 262.298,201.561 263.5,208.5C 261.282,209.057 258.949,209.057 256.5,208.5 Z"/></g>
<g><path style="opacity:1" fill="#9c9c9c" d="M 289.5,206.5 C 299.5,206.5 309.5,206.5 319.5,206.5C 319.156,221.845 318.489,237.179 317.5,252.5C 314.971,251.04 312.304,250.54 309.5,251C 307.374,255.945 305.874,261.112 305,266.5C 300.431,267.78 296.098,267.113 292,264.5C 291.401,259.98 291.568,255.48 292.5,251C 292.742,248.652 291.908,246.818 290,245.5C 289.5,232.504 289.333,219.504 289.5,206.5 Z"/></g>
<g><path style="opacity:0.063" fill="#9d9e9d" d="M 326.5,206.5 C 325.828,207.267 324.995,207.934 324,208.5C 323.809,210.708 323.309,212.708 322.5,214.5C 322.5,211.833 322.5,209.167 322.5,206.5C 323.833,206.5 325.167,206.5 326.5,206.5 Z"/></g>
<g><path style="opacity:1" fill="#9c9c9c" d="M 190.5,207.5 C 200.5,207.5 210.5,207.5 220.5,207.5C 220.5,220.5 220.5,233.5 220.5,246.5C 219.235,247.514 218.569,249.014 218.5,251C 219.506,255.528 219.506,260.028 218.5,264.5C 213.99,266.449 209.323,267.782 204.5,268.5C 204.064,262.546 202.564,256.879 200,251.5C 197.534,250.212 195.034,250.212 192.5,251.5C 191.489,236.847 190.822,222.181 190.5,207.5 Z"/></g>
<g><path style="opacity:1" fill="#464646" d="M 223.5,187.5 C 223.837,206.689 224.837,225.689 226.5,244.5C 225.791,245.404 224.791,245.737 223.5,245.5C 223.5,226.167 223.5,206.833 223.5,187.5 Z"/></g>
<g><path style="opacity:0.486" fill="#631314" d="M 153.5,211.5 C 155.914,212.911 157.581,214.911 158.5,217.5C 156.086,216.089 154.419,214.089 153.5,211.5 Z"/></g>
<g><path style="opacity:1" fill="#1f7a08" d="M 254.5,209.5 C 254.842,208.662 255.508,208.328 256.5,208.5C 257.028,209.721 257.695,210.887 258.5,212C 257.009,214.022 257.342,215.688 259.5,217C 258.619,217.708 257.953,218.542 257.5,219.5C 256.167,219.5 254.833,219.5 253.5,219.5C 253.389,218.883 253.056,218.383 252.5,218C 253.833,217.333 254.833,216.333 255.5,215C 255.327,213.091 254.993,211.257 254.5,209.5 Z"/></g>
<g><path style="opacity:1" fill="#999999" d="M 172.5,219.5 C 175.86,218.79 177.693,220.124 178,223.5C 179.783,229.455 180.283,235.455 179.5,241.5C 154.5,253.334 128.167,259.167 100.5,259C 98.4323,252.36 97.4323,245.527 97.5,238.5C 100.167,238.5 102.833,238.5 105.5,238.5C 105.901,241.748 106.568,244.915 107.5,248C 111.821,248.499 116.154,248.666 120.5,248.5C 120.5,244.5 120.5,240.5 120.5,236.5C 123.455,235.841 126.455,235.508 129.5,235.5C 129.678,238.216 130.178,240.883 131,243.5C 131.674,244.578 132.674,245.245 134,245.5C 137.9,244.756 141.566,243.423 145,241.5C 145.108,237.823 145.108,234.157 145,230.5C 147.557,228.686 150.224,228.352 153,229.5C 154.639,239.249 159.639,241.249 168,235.5C 168.363,231.134 168.363,226.801 168,222.5C 169.409,221.219 170.909,220.219 172.5,219.5 Z"/></g>
<g><path style="opacity:1" fill="#989898" d="M 333.5,219.5 C 336.528,219.965 339.362,220.965 342,222.5C 341.755,226.813 341.755,231.147 342,235.5C 350.361,241.249 355.361,239.249 357,229.5C 360.902,228.033 363.735,229.2 365.5,233C 364.614,235.808 364.447,238.641 365,241.5C 369.051,244.687 373.551,245.687 378.5,244.5C 379.642,241.601 380.308,238.601 380.5,235.5C 383.518,235.704 386.518,236.037 389.5,236.5C 389.5,240.5 389.5,244.5 389.5,248.5C 393.846,248.666 398.179,248.499 402.5,248C 403.451,244.943 403.784,241.777 403.5,238.5C 406.5,238.5 409.5,238.5 412.5,238.5C 412.195,245.47 411.195,252.304 409.5,259C 381.751,259.597 355.418,253.764 330.5,241.5C 329.418,233.903 330.418,226.569 333.5,219.5 Z"/></g>
<g><path style="opacity:1" fill="#545454" d="M 190.5,207.5 C 200.653,206.506 210.986,206.172 221.5,206.5C 221.829,220.01 221.496,233.344 220.5,246.5C 220.5,233.5 220.5,220.5 220.5,207.5C 210.5,207.5 200.5,207.5 190.5,207.5 Z"/></g>
<g><path style="opacity:1" fill="#9c9c9c" d="M 231.5,246.5 C 235.182,246.335 238.848,246.501 242.5,247C 243.31,252.751 243.81,258.584 244,264.5C 251.667,265.833 259.333,265.833 267,264.5C 267.499,258.509 267.666,252.509 267.5,246.5C 274.861,246.885 282.194,247.552 289.5,248.5C 288.8,254.159 288.634,259.825 289,265.5C 294.268,270.145 300.268,271.479 307,269.5C 308.488,264.228 309.654,258.895 310.5,253.5C 317.576,255.136 324.409,257.47 331,260.5C 329.153,280.607 326.319,300.607 322.5,320.5C 306.218,318.789 289.885,317.789 273.5,317.5C 275.428,305.438 271.762,295.605 262.5,288C 252.773,283.278 244.94,285.445 239,294.5C 235.096,301.327 233.596,308.66 234.5,316.5C 218.778,317.325 203.112,318.658 187.5,320.5C 184.344,303.228 181.51,285.895 179,268.5C 178.179,265.446 178.345,262.446 179.5,259.5C 185.065,257.218 190.731,255.218 196.5,253.5C 197.647,253.818 198.481,254.484 199,255.5C 199.955,260.615 201.289,265.615 203,270.5C 209.46,271.196 215.626,269.863 221.5,266.5C 222.306,260.528 222.306,254.528 221.5,248.5C 225.011,248.101 228.344,247.434 231.5,246.5 Z"/></g>
<g><path style="opacity:1" fill="#9b9b9b" d="M 170.5,248.5 C 171.5,248.5 172.5,248.5 173.5,248.5C 176.594,272.915 180.26,297.248 184.5,321.5C 163.588,323.512 143.088,327.512 123,333.5C 119.871,310.558 116.037,287.725 111.5,265C 111.833,264.167 112.167,263.333 112.5,262.5C 132.584,260.487 151.917,255.821 170.5,248.5 Z"/></g>
<g><path style="opacity:1" fill="#9b9b9b" d="M 336.5,248.5 C 356.534,255.842 377.2,260.508 398.5,262.5C 396.811,268.779 395.311,275.112 394,281.5C 391.115,298.869 388.281,316.203 385.5,333.5C 365.83,327.833 345.83,323.833 325.5,321.5C 329.74,297.248 333.406,272.915 336.5,248.5 Z"/></g>
<g><path style="opacity:0.055" fill="#9d9e9d" d="M 181.5,254.5 C 180.295,256.138 178.962,256.471 177.5,255.5C 178.708,254.766 180.041,254.433 181.5,254.5 Z"/></g>
<g><path style="opacity:1" fill="#030303" d="M 144.5,272.5 C 149.535,271.502 153.702,272.835 157,276.5C 159.451,282.25 160.951,288.25 161.5,294.5C 154.437,295.51 147.437,296.844 140.5,298.5C 138.208,292.34 137.375,286.007 138,279.5C 139.694,276.642 141.861,274.309 144.5,272.5 Z"/></g>
<g><path style="opacity:1" fill="#040404" d="M 357.5,272.5 C 366.989,270.847 372.322,274.68 373.5,284C 372.589,288.806 371.923,293.639 371.5,298.5C 364.409,297.644 357.409,296.311 350.5,294.5C 349.574,286.133 351.907,278.8 357.5,272.5 Z"/></g>
<g><path style="opacity:0.067" fill="#8b8b8b" d="M 398.5,279.5 C 398.932,282.877 398.265,285.877 396.5,288.5C 396.068,285.123 396.735,282.123 398.5,279.5 Z"/></g>
<g><path style="opacity:1" fill="#703800" d="M 249.5,288.5 C 261.069,287.707 267.903,293.04 270,304.5C 270.499,308.486 270.666,312.486 270.5,316.5C 259.5,316.5 248.5,316.5 237.5,316.5C 236.095,304.662 240.095,295.329 249.5,288.5 Z"/></g>
<g><path style="opacity:1" fill="#ce993c" d="M 223.5,319.5 C 282.727,316.353 340.727,323.186 397.5,340C 411.449,344.476 424.783,350.309 437.5,357.5C 431.199,368.298 424.699,378.965 418,389.5C 415.31,399.592 412.31,409.592 409,419.5C 360.122,397.283 308.789,386.616 255,387.5C 217.79,386.943 181.29,391.777 145.5,402C 129.592,407.024 113.926,412.524 98.5,418.5C 95.9773,408.763 93.144,399.096 90,389.5C 83.7511,378.667 77.2511,368 70.5,357.5C 91.8982,345.754 114.565,337.254 138.5,332C 166.649,325.622 194.983,321.455 223.5,319.5 Z"/></g>
<g><path style="opacity:1" fill="#0e0802" d="M 232.5,336.5 C 236.646,335.353 240.98,335.186 245.5,336C 240.821,339.346 236.821,343.346 233.5,348C 237.472,353.426 241.805,358.593 246.5,363.5C 240.368,364.991 237.368,364.991 237.5,363.5C 235.69,359.007 232.69,355.341 228.5,352.5C 227.914,352.709 227.414,353.043 227,353.5C 225.977,357.317 226.477,360.817 228.5,364C 225.137,364.626 221.804,364.959 218.5,365C 219.704,363.647 220.371,361.981 220.5,360C 220.923,356.973 219.923,354.64 217.5,353C 219.496,348.729 219.996,344.229 219,339.5C 218.5,339 218,338.5 217.5,338C 220.738,336.632 224.072,336.299 227.5,337C 226.267,338.698 225.6,340.698 225.5,343C 225.833,344.833 226.167,346.667 226.5,348.5C 230.442,346.062 233.942,343.062 237,339.5C 237.617,338.551 237.451,337.718 236.5,337C 235.207,336.51 233.873,336.343 232.5,336.5 Z"/></g>
<g><path style="opacity:1" fill="#0a0601" d="M 248.5,339.5 C 252.311,338.355 256.311,338.188 260.5,339C 257.512,340.228 256.178,342.561 256.5,346C 256.274,348.671 256.941,351.004 258.5,353C 257.296,354.353 256.629,356.019 256.5,358C 256.629,359.981 257.296,361.647 258.5,363C 256.19,363.497 253.857,363.663 251.5,363.5C 251.665,360.482 251.498,357.482 251,354.5C 249,353.5 249,352.5 251,351.5C 251.667,347.833 251.667,344.167 251,340.5C 250.329,339.748 249.496,339.414 248.5,339.5 Z"/></g>
<g><path style="opacity:1" fill="#150e04" d="M 264.5,339.5 C 266.857,339.337 269.19,339.503 271.5,340C 270.549,340.718 270.383,341.551 271,342.5C 274.362,347.03 277.529,351.697 280.5,356.5C 281.662,351.533 281.829,346.533 281,341.5C 280.25,340.874 279.416,340.374 278.5,340C 281.167,339.333 283.833,339.333 286.5,340C 283.64,343.681 282.807,347.848 284,352.5C 284.5,353 285,353.5 285.5,354C 283.638,357.149 282.971,360.649 283.5,364.5C 281.143,364.663 278.81,364.497 276.5,364C 277.517,362.951 277.684,361.784 277,360.5C 274,355.833 271,351.167 268,346.5C 267.333,351.833 267.333,357.167 268,362.5C 268.75,363.126 269.584,363.626 270.5,364C 267.833,364.667 265.167,364.667 262.5,364C 264.028,362.352 264.695,360.352 264.5,358C 264.195,351.981 264.195,345.815 264.5,339.5 Z"/></g>
<g><path style="opacity:1" fill="#0e0902" d="M 200.5,340.5 C 201.905,342.225 202.405,344.225 202,346.5C 200.701,345.02 199.034,344.354 197,344.5C 194.183,345.031 191.35,345.364 188.5,345.5C 188.335,348.85 188.502,352.183 189,355.5C 191.774,356.523 194.607,356.523 197.5,355.5C 197.281,354.325 197.614,353.325 198.5,352.5C 199.647,354.765 199.814,357.098 199,359.5C 196.281,358.556 193.448,358.223 190.5,358.5C 190.5,361.167 190.5,363.833 190.5,366.5C 194.534,366.328 198.534,365.828 202.5,365C 203.126,364.25 203.626,363.416 204,362.5C 205.759,367.834 204.259,369.501 199.5,367.5C 194.486,368.337 189.486,368.837 184.5,369C 186.196,365.038 185.53,361.538 182.5,358.5C 184.002,354.022 183.669,349.688 181.5,345.5C 187.463,344.171 193.463,343.004 199.5,342C 200.056,341.617 200.389,341.117 200.5,340.5 Z"/></g>
<g><path style="opacity:1" fill="#0d0801" d="M 302.5,339.5 C 306.601,341.385 310.601,343.552 314.5,346C 313.213,347.41 312.046,348.91 311,350.5C 310.953,344.954 308.119,342.288 302.5,342.5C 292.15,345.417 289.65,351.751 295,361.5C 298.423,364.18 302.256,365.013 306.5,364C 309.08,361.88 309.08,359.713 306.5,357.5C 315.378,353.547 317.045,355.713 311.5,364C 307.969,365.606 304.302,366.772 300.5,367.5C 296.788,365.893 293.288,363.893 290,361.5C 286.256,355.211 286.756,349.378 291.5,344C 295.157,342.178 298.824,340.678 302.5,339.5 Z"/></g>
<g><path style="opacity:1" fill="#0c0702" d="M 319.5,344.5 C 319.56,343.957 319.893,343.624 320.5,343.5C 325.417,344.74 330.417,345.574 335.5,346C 337.286,346.785 338.786,347.951 340,349.5C 342.752,356.77 341.585,363.27 336.5,369C 334.466,370.006 332.3,370.506 330,370.5C 324.851,369.588 319.684,368.755 314.5,368C 315.931,367.535 317.097,366.701 318,365.5C 318.777,362.571 318.61,359.737 317.5,357C 320.424,353.088 321.09,348.922 319.5,344.5 Z"/></g>
<g><path style="opacity:1" fill="#100a02" d="M 174.5,345.5 C 175.905,347.64 176.738,349.974 177,352.5C 172.415,349.013 167.582,348.68 162.5,351.5C 159.84,354.043 160.173,356.209 163.5,358C 168.282,358.119 172.949,358.785 177.5,360C 180.564,364.658 179.564,368.325 174.5,371C 170.327,371.979 166.161,372.812 162,373.5C 160.699,371.598 160.032,369.598 160,367.5C 163.257,370.428 167.091,371.262 171.5,370C 175.185,368.717 176.519,366.383 175.5,363C 170.386,362.891 165.386,362.224 160.5,361C 155.963,355.039 157.297,350.706 164.5,348C 168.311,348.083 171.645,347.25 174.5,345.5 Z"/></g>
<g><path style="opacity:1" fill="#ca963b" d="M 325.5,347.5 C 335.439,346.987 338.939,351.654 336,361.5C 333.815,367.676 329.648,369.676 323.5,367.5C 323.73,360.786 324.397,354.12 325.5,347.5 Z"/></g>
<g><path style="opacity:1" fill="#0c0701" d="M 360.5,350.5 C 369.958,353.413 373.791,359.747 372,369.5C 370.833,372 369,373.833 366.5,375C 356.585,379.174 349.085,376.341 344,366.5C 342.231,359.874 344.397,355.04 350.5,352C 354.025,351.821 357.359,351.321 360.5,350.5 Z"/></g>
<g><path style="opacity:1" fill="#23190a" d="M 299.5,351.5 C 300.995,351.415 301.995,352.081 302.5,353.5C 299.623,354.911 298.623,354.244 299.5,351.5 Z"/></g>
<g><path style="opacity:1" fill="#0b0601" d="M 138.5,353.5 C 144.605,352.651 150.105,353.984 155,357.5C 158.333,362.5 158.333,367.5 155,372.5C 149.288,379.705 142.121,381.205 133.5,377C 128.729,373.686 126.896,369.186 128,363.5C 130.738,359.26 134.238,355.926 138.5,353.5 Z"/></g>
<g><path style="opacity:1" fill="#ca963b" d="M 354.5,353.5 C 364.535,353.032 368.702,357.698 367,367.5C 360.897,376.803 354.897,376.803 349,367.5C 347.268,361.314 349.101,356.647 354.5,353.5 Z"/></g>
<g><path style="opacity:1" fill="#c8943a" d="M 139.5,355.5 C 151.505,356.508 155.005,362.508 150,373.5C 142.412,378.601 136.745,376.934 133,368.5C 132.032,362.557 134.199,358.224 139.5,355.5 Z"/></g>
<g><path style="opacity:1" fill="#0f0a03" d="M 378.5,357.5 C 378.917,356.876 379.584,356.543 380.5,356.5C 382.577,357.937 384.91,358.604 387.5,358.5C 387.334,365.841 387.5,373.174 388,380.5C 392.5,374.833 397,369.167 401.5,363.5C 403.795,364.432 406.129,365.265 408.5,366C 407.584,366.374 406.75,366.874 406,367.5C 404.741,375.388 404.574,383.221 405.5,391C 402.076,390.639 398.742,389.639 395.5,388C 396.793,387.51 398.127,387.343 399.5,387.5C 400.134,381.504 400.3,375.504 400,369.5C 396.425,373.653 393.091,377.986 390,382.5C 389.517,383.448 389.351,384.448 389.5,385.5C 386.432,384.978 383.432,384.145 380.5,383C 381.786,379.767 382.453,376.267 382.5,372.5C 382.333,369.167 382.167,365.833 382,362.5C 378.701,367.6 375.535,372.766 372.5,378C 373.272,379.221 374.272,380.221 375.5,381C 372.691,381.18 370.024,380.513 367.5,379C 372.783,373.202 377.116,366.702 380.5,359.5C 380.253,358.287 379.586,357.62 378.5,357.5 Z"/></g>
<g><path style="opacity:1" fill="#0f0902" d="M 113.5,357.5 C 121.709,356.872 125.209,360.539 124,368.5C 122.833,371 121,372.833 118.5,374C 122.156,377.163 126.156,379.829 130.5,382C 126.973,383.951 123.307,385.285 119.5,386C 121.007,385.163 121.507,383.996 121,382.5C 118,380.5 115,378.5 112,376.5C 111.5,377 111,377.5 110.5,378C 111.525,380.071 112.358,382.238 113,384.5C 113.772,385.849 114.939,386.682 116.5,387C 113.539,388.265 110.539,389.431 107.5,390.5C 107.346,389.091 107.179,387.424 107,385.5C 106.588,383.003 105.422,381.003 103.5,379.5C 102.898,375.002 101.731,370.668 100,366.5C 98.2663,365.751 96.433,365.251 94.5,365C 101.041,362.77 107.374,360.27 113.5,357.5 Z"/></g>
<g><path style="opacity:1" fill="#c8943a" d="M 109.5,361.5 C 118.487,360.665 120.82,364.165 116.5,372C 113.937,373.079 111.271,373.579 108.5,373.5C 108.045,370.797 107.378,368.13 106.5,365.5C 106.787,363.557 107.787,362.223 109.5,361.5 Z"/></g>
<g><path style="opacity:1" fill="#1d1405" d="M 356.5,362.5 C 360.555,362.648 361.055,363.648 358,365.5C 356.961,364.756 356.461,363.756 356.5,362.5 Z"/></g>
<g><path style="opacity:1" fill="#140d02" d="M 141.5,364.5 C 144.674,364.952 145.007,365.952 142.5,367.5C 141.614,366.675 141.281,365.675 141.5,364.5 Z"/></g>
</svg>
